<svg width="23" height="23" viewBox="0 0 23 23" fill="none" xmlns="http://www.w3.org/2000/svg">
<path d="M11.5929 22.258L11.5819 22.26L11.5109 22.295L11.4909 22.299L11.4769 22.295L11.4059 22.26C11.3953 22.2567 11.3873 22.2583 11.3819 22.265L11.3779 22.275L11.3609 22.703L11.3659 22.723L11.3759 22.736L11.4799 22.81L11.4949 22.814L11.5069 22.81L11.6109 22.736L11.6229 22.72L11.6269 22.703L11.6099 22.276C11.6073 22.2653 11.6016 22.2593 11.5929 22.258ZM11.8579 22.145L11.8449 22.147L11.6599 22.24L11.6499 22.25L11.6469 22.261L11.6649 22.691L11.6699 22.703L11.6779 22.71L11.8789 22.803C11.8916 22.8063 11.9013 22.8037 11.9079 22.795L11.9119 22.781L11.8779 22.167C11.8746 22.155 11.8679 22.1477 11.8579 22.145ZM11.1429 22.147C11.1385 22.1443 11.1333 22.1435 11.1282 22.1446C11.1232 22.1457 11.1188 22.1487 11.1159 22.153L11.1099 22.167L11.0759 22.781C11.0766 22.793 11.0823 22.801 11.0929 22.805L11.1079 22.803L11.3089 22.71L11.3189 22.702L11.3229 22.691L11.3399 22.261L11.3369 22.249L11.3269 22.239L11.1429 22.147Z" fill="white"/>
<path d="M11.5 0C17.8514 0 23 5.14855 23 11.5C23 17.8514 17.8514 23 11.5 23C5.14855 23 0 17.8514 0 11.5C0 5.14855 5.14855 0 11.5 0ZM11.5 2.3C9.06001 2.3 6.71995 3.26928 4.99462 4.99462C3.26928 6.71995 2.3 9.06001 2.3 11.5C2.3 13.94 3.26928 16.28 4.99462 18.0054C6.71995 19.7307 9.06001 20.7 11.5 20.7C13.94 20.7 16.28 19.7307 18.0054 18.0054C19.7307 16.28 20.7 13.94 20.7 11.5C20.7 9.06001 19.7307 6.71995 18.0054 4.99462C16.28 3.26928 13.94 2.3 11.5 2.3ZM6.325 9.775C6.7825 9.775 7.22126 9.95674 7.54476 10.2802C7.86826 10.6037 8.05 11.0425 8.05 11.5C8.05 11.9575 7.86826 12.3963 7.54476 12.7198C7.22126 13.0433 6.7825 13.225 6.325 13.225C5.8675 13.225 5.42874 13.0433 5.10524 12.7198C4.78174 12.3963 4.6 11.9575 4.6 11.5C4.6 11.0425 4.78174 10.6037 5.10524 10.2802C5.42874 9.95674 5.8675 9.775 6.325 9.775ZM11.5 9.775C11.9575 9.775 12.3963 9.95674 12.7198 10.2802C13.0433 10.6037 13.225 11.0425 13.225 11.5C13.225 11.9575 13.0433 12.3963 12.7198 12.7198C12.3963 13.0433 11.9575 13.225 11.5 13.225C11.0425 13.225 10.6037 13.0433 10.2802 12.7198C9.95674 12.3963 9.775 11.9575 9.775 11.5C9.775 11.0425 9.95674 10.6037 10.2802 10.2802C10.6037 9.95674 11.0425 9.775 11.5 9.775ZM16.675 9.775C17.1325 9.775 17.5713 9.95674 17.8948 10.2802C18.2183 10.6037 18.4 11.0425 18.4 11.5C18.4 11.9575 18.2183 12.3963 17.8948 12.7198C17.5713 13.0433 17.1325 13.225 16.675 13.225C16.2175 13.225 15.7787 13.0433 15.4552 12.7198C15.1317 12.3963 14.95 11.9575 14.95 11.5C14.95 11.0425 15.1317 10.6037 15.4552 10.2802C15.7787 9.95674 16.2175 9.775 16.675 9.775Z" fill="white"/>
</svg>
