<svg width="25" height="20" viewBox="0 0 25 20" fill="none" xmlns="http://www.w3.org/2000/svg">
<path d="M21.375 1.14996C21.1171 0.983137 20.8222 0.88221 20.5162 0.856055C20.2102 0.8299 19.9024 0.879318 19.62 0.999964L10.365 4.64496C10.1461 4.73488 9.91164 4.78076 9.675 4.77996H3.75C3.25272 4.77996 2.77581 4.97751 2.42417 5.32914C2.07254 5.68077 1.875 6.15768 1.875 6.65496V6.80496H0V11.305H1.875V11.5C1.88675 11.9894 2.08947 12.4548 2.43983 12.7968C2.7902 13.1388 3.26042 13.3301 3.75 13.33L6 18.1C6.15236 18.4212 6.39222 18.6929 6.69204 18.8839C6.99187 19.075 7.33949 19.1776 7.695 19.18H8.64C9.13468 19.176 9.60775 18.9767 9.95614 18.6255C10.3045 18.2743 10.5 17.7997 10.5 17.305V13.51L19.62 17.155C19.8446 17.2432 20.0837 17.289 20.325 17.29C20.6994 17.2831 21.0639 17.1685 21.375 16.96C21.6217 16.7934 21.8252 16.5705 21.9687 16.3096C22.1121 16.0488 22.1914 15.7575 22.2 15.46V2.69496C22.1986 2.38974 22.1228 2.08946 21.979 1.82021C21.8352 1.55097 21.6279 1.32089 21.375 1.14996ZM8.625 6.65496V11.5H3.75V6.65496H8.625ZM8.625 17.305H7.68L5.835 13.33H8.625V17.305ZM11.055 11.725C10.8769 11.634 10.6912 11.5587 10.5 11.5V6.54996C10.6893 6.51061 10.875 6.45542 11.055 6.38496L20.325 2.69496V15.415L11.055 11.725ZM22.245 7.17996V10.93C22.7423 10.93 23.2192 10.7324 23.5708 10.3808C23.9225 10.0292 24.12 9.55225 24.12 9.05496C24.12 8.55768 23.9225 8.08077 23.5708 7.72914C23.2192 7.37751 22.7423 7.17996 22.245 7.17996Z" fill="white"/>
</svg>
