<svg width="30" height="30" viewBox="0 0 30 30" fill="none" xmlns="http://www.w3.org/2000/svg">
<path d="M0 6.21363C0.160516 5.74708 0.255026 5.24228 0.4943 4.81999C1.20612 3.56511 2.32074 2.92379 3.76538 2.91479C5.93235 2.90054 8.10007 2.90879 10.2678 2.91179C10.7726 2.91254 11.1116 3.21633 11.1154 3.64912C11.1199 4.08566 10.7621 4.39844 10.249 4.39919C8.12032 4.4007 5.99236 4.39694 3.86364 4.40069C2.70327 4.40294 1.86019 5.03001 1.57141 6.11237C1.51215 6.33514 1.4964 6.57516 1.4964 6.80694C1.49265 13.1826 1.4919 19.5575 1.4949 25.9331C1.49565 27.1272 2.09271 27.9636 3.15857 28.2591C3.39935 28.3259 3.65887 28.3521 3.9094 28.3521C10.7823 28.3566 17.656 28.3566 24.529 28.3551C25.9909 28.3544 26.9397 27.3973 26.942 25.9271C26.945 23.8089 26.942 21.6899 26.9435 19.571C26.9435 19.1449 27.1663 18.8322 27.5128 18.7541C27.9688 18.6521 28.4084 18.9807 28.4211 19.4585C28.4369 20.0533 28.4279 20.6496 28.4271 21.2451C28.4249 22.9343 28.4474 24.6235 28.4114 26.3119C28.3716 28.1796 26.7837 29.7495 24.9145 29.8298C24.778 29.8358 24.6415 29.841 24.505 29.841C17.6418 29.8418 10.7778 29.8388 3.91465 29.844C2.41074 29.8455 1.24363 29.2417 0.495801 27.9351C0.255027 27.5143 0.161266 27.0095 0 26.5429C0 19.7667 0 12.9898 0 6.21363Z" fill="white"/>
<path d="M25.7787 0C26.6112 0.0157516 27.3681 0.287281 27.9996 0.864089C28.3454 1.17987 28.6747 1.51441 29.0002 1.85119C30.3076 3.20358 30.3346 5.16127 29.0707 6.55191C28.992 6.63817 28.9095 6.72143 28.8262 6.80469C24.5185 11.1124 20.2093 15.4193 15.9062 19.7315C15.6631 19.9753 15.3954 20.1313 15.0638 20.222C13.1174 20.7524 11.1747 21.2962 9.23123 21.837C8.97245 21.909 8.71968 21.9622 8.46615 21.8167C8.15337 21.6367 8.02286 21.3104 8.13387 20.9069C8.57416 19.2995 9.07671 17.7063 9.44425 16.0831C9.70753 14.9183 10.2873 14.0392 11.1312 13.2088C15.1943 9.20868 19.211 5.16202 23.2374 1.12511C23.9387 0.420043 24.7571 0.0150015 25.7787 0ZM22.6006 3.96265C18.9815 7.58177 15.3593 11.2039 11.7807 14.7817C12.9224 15.9234 14.0842 17.086 15.2146 18.2156C18.8074 14.6227 22.4288 11.0014 26.0344 7.39575C24.8981 6.25938 23.74 5.10202 22.6006 3.96265ZM27.1933 6.34189C27.5158 5.99536 27.8781 5.66532 28.1699 5.28128C28.6372 4.66622 28.6177 3.71663 28.1181 3.13082C27.7341 2.68077 27.3013 2.26823 26.8595 1.87219C26.5287 1.57516 26.1049 1.4889 25.6609 1.5054C24.718 1.53991 24.2485 2.26598 23.6709 2.81654C24.8508 3.99716 26.0074 5.15452 27.1933 6.34189ZM13.7047 19.0422C12.7783 18.1151 11.8647 17.2007 10.9564 16.2924C10.6166 17.5203 10.2678 18.7834 9.9048 20.0953C11.2167 19.7315 12.4783 19.382 13.7047 19.0422Z" fill="white"/>
</svg>
