<svg width="48" height="42" viewBox="0 0 48 42" fill="none" xmlns="http://www.w3.org/2000/svg">
<path d="M44.6349 23.8113H45.7288V23.9822H45.2881V25.4262H45.0771V23.9822H44.6349V23.8113ZM45.9887 23.8228H46.2155L46.8084 25.1492L47.4014 23.8228H47.6267V25.4262H47.4157V24.2305L46.8831 25.4262H46.7352L46.1997 24.2276V25.4262H45.9887V23.8228ZM14.3562 19.7447C9.14778 20.1954 4.12023 20.1595 4.12023 14.0258C4.12023 8.88978 8.51754 4.40255 14.8745 3.0403L28.0305 0.225368C26.7184 0.0760802 25.3717 0 23.9978 0C10.7442 0 0 7.1658 0 16.0039C0 20.761 3.11243 25.0358 8.05384 27.9656L15.5392 26.3636C18.5698 25.7148 20.4562 23.7941 20.4562 21.6883C20.4576 19.2136 17.6108 19.4547 14.3562 19.7447ZM35.8948 21.7543L47.499 19.271C47.8263 18.2159 48 17.1236 48 16.0039C48 10.5951 43.9745 5.81216 37.8143 2.91685L33.6581 3.71496L15.0238 7.70266C12.1052 8.32708 10.1829 10.1056 10.1829 12.0262C10.1829 14.5024 12.8086 14.3115 16.1335 14.0416C21.2343 13.5421 26.5159 13.5206 26.5159 19.5811C26.5159 24.8908 22.1918 29.513 15.6827 31.0231C18.274 31.6619 21.0764 32.0107 23.9993 32.0107C32.1881 32.0107 39.4207 29.2747 43.752 25.0975L32.458 27.5148C30.0418 28.0316 28.0808 26.4913 28.0808 24.0755V5.78776L34.0242 4.51595V20.2859C34.0257 21.3165 34.8641 21.974 35.8948 21.7543ZM2.5511 42C1.2576 42 0.327322 41.2206 0.327322 40.1483H1.40691C1.40691 40.698 1.90076 41.0914 2.58699 41.0914C3.17272 41.0914 3.53737 40.7985 3.53737 40.3909C3.53737 39.9114 2.98753 39.8411 2.35729 39.7621C1.34948 39.6329 0.377569 39.4191 0.377569 38.2319C0.377569 37.2386 1.22889 36.5524 2.45778 36.5524C3.69385 36.5524 4.58825 37.296 4.58825 38.3181H3.54455C3.55173 37.8171 3.10094 37.4597 2.4865 37.4597C1.9223 37.4597 1.55047 37.7238 1.55047 38.0956C1.55047 38.575 2.05868 38.6453 2.70184 38.7315C3.68811 38.8463 4.71027 39.0602 4.71027 40.233C4.71027 41.278 3.84459 42 2.5511 42ZM7.16231 40.3622V41.8206H6.00377V36.7319H8.20601C9.43634 36.7319 10.2934 37.4826 10.2934 38.5477C10.2934 39.62 9.4349 40.3636 8.19166 40.3636H7.16231V40.3622ZM7.16231 37.6391V39.4549H7.97775C8.63526 39.4549 9.09323 39.076 9.09323 38.5477C9.09323 38.0123 8.63526 37.6405 7.97775 37.6405H7.16231V37.6391ZM11.251 39.2755C11.251 37.6678 12.3952 36.5524 14.0677 36.5524C15.733 36.5524 16.8843 37.6678 16.8843 39.2755C16.8843 40.8904 15.733 41.9986 14.0677 41.9986C12.3952 42 11.251 40.8918 11.251 39.2755ZM12.4526 39.2755C12.4526 40.2688 13.1173 40.9622 14.0677 40.9693C15.018 40.9693 15.6827 40.2688 15.6827 39.2755C15.6827 38.2822 15.018 37.5817 14.0677 37.5817C13.1173 37.5817 12.4526 38.2822 12.4526 39.2755ZM19.3507 41.8206H18.1491V36.7319H20.6155C21.7956 36.7319 22.6168 37.4324 22.6168 38.4472C22.6168 39.1334 22.166 39.7047 21.5013 39.92L22.7316 41.822H21.3879L20.3873 40.0779H19.3507V41.8206ZM19.3507 37.6391V39.2324H20.4232C20.9874 39.2324 21.4166 38.9181 21.4166 38.4458C21.4166 37.9305 20.9874 37.6376 20.4232 37.6376H19.3507V37.6391ZM24.9195 37.7324H23.3891V36.7319H27.6501V37.7324H26.1197V41.8206H24.9181V37.7324H24.9195ZM28.6938 41.8206V36.7319H29.8954V40.7914H32.0258V41.8206H28.6938ZM34.0199 41.8206H32.7551L34.4635 36.7304H36.2078L37.909 41.8206H36.6514L36.3729 40.9765H34.2999L34.0199 41.8206ZM34.5353 40.1196H36.136L35.335 37.7611L34.5353 40.1196ZM41.2124 37.675H38.7819V36.7319H42.7715V37.5185L40.3123 40.8775H42.8433V41.8206H38.7115V41.0339L41.2124 37.675ZM45.2508 40.8559H47.7387V41.8206H44.0922V36.7319H47.6669V37.6965H45.2508V38.7831H47.3812V39.6415H45.2508V40.8559Z" fill="url(#paint0_linear_974_7)"/>
<defs>
<linearGradient id="paint0_linear_974_7" x1="0.00132077" y1="20.9993" x2="48.0001" y2="20.9993" gradientUnits="userSpaceOnUse">
<stop offset="0.9974" stop-color="white"/>
</linearGradient>
</defs>
</svg>
