<svg width="72" height="64" viewBox="0 0 72 64" fill="none" xmlns="http://www.w3.org/2000/svg">
<path d="M66.9524 36.284H68.5933V36.5443H67.9322V38.7447H67.6156V36.5443H66.9524V36.284ZM68.983 36.3014H69.3233L70.2127 38.3226L71.102 36.3014H71.4401V38.7447H71.1236V36.9227L70.3246 38.7447H70.1028L69.2996 36.9183V38.7447H68.983V36.3014ZM21.5343 30.0872C13.7217 30.774 6.18035 30.7193 6.18035 21.3727C6.18035 13.5463 12.7763 6.70864 22.3117 4.63284L42.0458 0.343417C40.0775 0.115932 38.0576 0 35.9968 0C16.1163 0 0 10.9193 0 24.3869C0 31.6358 4.66864 38.1498 12.0808 42.6142L23.3087 40.1731C27.8546 39.1844 30.6843 36.2577 30.6843 33.0488C30.6864 29.2778 26.4162 29.6453 21.5343 30.0872ZM53.8423 33.1495L71.2485 29.3653C71.7394 27.7576 72 26.093 72 24.3869C72 16.1449 65.9618 8.85663 56.7214 4.44472L50.4872 5.66089L22.5357 11.7374C18.1577 12.6889 15.2743 15.399 15.2743 18.3257C15.2743 22.0989 19.2129 21.808 24.2003 21.3968C31.8514 20.6356 39.7739 20.6028 39.7739 29.8378C39.7739 37.9288 33.2878 44.9721 23.5241 47.2733C27.411 48.2466 31.6145 48.7782 35.9989 48.7782C48.2821 48.7782 59.1311 44.609 65.628 38.2438L48.6869 41.9273C45.0627 42.7148 42.1211 40.3677 42.1211 36.6864V8.81944L51.0363 6.88144V30.9118C51.0385 32.4823 52.2961 33.4841 53.8423 33.1495ZM3.82665 64C1.8864 64 0.490982 62.8123 0.490982 61.1783H2.11036C2.11036 62.0161 2.85114 62.6154 3.88048 62.6154C4.75908 62.6154 5.30605 62.1692 5.30605 61.548C5.30605 60.8174 4.48129 60.7102 3.53593 60.5899C2.02422 60.393 0.566354 60.0671 0.566354 58.2582C0.566354 56.7445 1.84334 55.699 3.68667 55.699C5.54078 55.699 6.88237 56.832 6.88237 58.3894H5.31682C5.32759 57.626 4.65142 57.0814 3.72975 57.0814C2.88345 57.0814 2.3257 57.4838 2.3257 58.0504C2.3257 58.781 3.08802 58.8881 4.05276 59.0194C5.53217 59.1944 7.06541 59.5203 7.06541 61.3074C7.06541 62.8998 5.76689 64 3.82665 64ZM10.7435 61.5042V63.7266H9.00566V55.9724H12.309C14.1545 55.9724 15.4401 57.1164 15.4401 58.7394C15.4401 60.3734 14.1524 61.5064 12.2875 61.5064H10.7435V61.5042ZM10.7435 57.3548V60.1218H11.9666C12.9529 60.1218 13.6398 59.5443 13.6398 58.7394C13.6398 57.9235 12.9529 57.357 11.9666 57.357H10.7435V57.3548ZM16.8764 59.8484C16.8764 57.3985 18.5927 55.699 21.1015 55.699C23.5995 55.699 25.3265 57.3985 25.3265 59.8484C25.3265 62.3092 23.5995 63.9978 21.1015 63.9978C18.5927 64 16.8764 62.3114 16.8764 59.8484ZM18.6789 59.8484C18.6789 61.362 19.6759 62.4185 21.1015 62.4295C22.5271 62.4295 23.5241 61.362 23.5241 59.8484C23.5241 58.3347 22.5271 57.2673 21.1015 57.2673C19.6759 57.2673 18.6789 58.3347 18.6789 59.8484ZM29.0261 63.7266H27.2237V55.9724H30.9233C32.6934 55.9724 33.9252 57.0398 33.9252 58.5863C33.9252 59.6318 33.249 60.5024 32.252 60.8305L34.0974 63.7288H32.0818L30.5809 61.0711H29.0261V63.7266ZM29.0261 57.3548V59.7828H30.6347C31.481 59.7828 32.1249 59.3037 32.1249 58.5841C32.1249 57.7988 31.481 57.3526 30.6347 57.3526H29.0261V57.3548ZM37.3793 57.497H35.0837V55.9724H41.4751V57.497H39.1795V63.7266H37.3771V57.497H37.3793ZM43.0406 63.7266V55.9724H44.8431V62.1582H48.0388V63.7266H43.0406ZM51.0299 63.7266H49.1327L51.6953 55.9702H54.3117L56.8635 63.7266H54.9771L54.5594 62.4404H51.4498L51.0299 63.7266ZM51.803 61.1346H54.204L53.0024 57.5407L51.803 61.1346ZM61.8186 57.4095H58.1728V55.9724H64.1572V57.1711L60.4684 62.2895H64.2649V63.7266H58.0673V62.5279L61.8186 57.4095ZM67.8762 62.2567H71.6081V63.7266H66.1384V55.9724H71.5004V57.4423H67.8762V59.0981H71.0719V60.4062H67.8762V62.2567Z" fill="url(#paint0_linear_653_9)"/>
<defs>
<linearGradient id="paint0_linear_653_9" x1="0.00198116" y1="31.9989" x2="72.0002" y2="31.9989" gradientUnits="userSpaceOnUse">
<stop offset="0.0131" stop-color="#2D439B"/>
<stop offset="0.9974" stop-color="#9A1B39"/>
</linearGradient>
</defs>
</svg>
